<svg viewBox="0 0 2428 693" xmlns="http://www.w3.org/2000/svg" xmlns:xlink="http://www.w3.org/1999/xlink"><clipPath id="a"><path d="m0 0h2428v693h-2428z"/></clipPath><g clip-path="url(#a)"><path d="m50.956.005 206.632 2.829c28.53.391 51.975 23.47 52.365 51.549s-22.42 50.524-50.953 50.134l-206.63-2.829c-28.53-.388-51.97-23.47-52.37-51.549s22.426-50.525 50.956-50.134z" fill="#fe2c25" opacity=".998" transform="matrix(-.8660254 .5 -.5 -.8660254 320.781 264.062)"/><path d="m52.37 2.834 206.63-2.829c28.53-.391 51.342 22.055 50.951 50.134s-23.835 51.158-52.365 51.549l-206.63 2.829c-28.53.39-51.342-22.056-50.956-50.135s23.84-51.158 52.37-51.548z" fill="#2785fc" opacity=".998" transform="matrix(-.8660254 -.5 .5 -.8660254 268.52 519.907)"/><path d="m52.37 101.688 206.63 2.829c28.53.391 51.342-22.055 50.951-50.134s-23.833-51.159-52.363-51.549l-206.632-2.829c-28.53-.391-51.342 22.055-50.956 50.134s23.84 51.161 52.37 51.549z" fill="#ffba00" opacity=".998" transform="matrix(.8660254 -.5 .5 .8660254 336.31 429.389)"/><path d="m50.956 104.517 206.632-2.829c28.53-.391 51.975-23.47 52.365-51.549s-22.42-50.525-50.953-50.134l-206.63 2.829c-28.53.39-51.97 23.466-52.37 51.548s22.426 50.525 50.956 50.135z" fill="#00a050" opacity=".998" transform="matrix(.8660254 .5 -.5 .8660254 388.571 173.543)"/><path d="m42.2 220.815v-221.506h63.973q26.389 0 44.381 7.4a72.008 72.008 0 0 1 29.383 21.591q11.4 14.194 16.393 34.385t5 45.78q0 26.389-5.4 44.981t-13.794 30.987a72.169 72.169 0 0 1 -18.992 19.592 93.2 93.2 0 0 1 -21.391 11 89.709 89.709 0 0 1 -20.391 4.8 159.313 159.313 0 0 1 -15.993 1zm-37.988-253.492v285.477h97.958q35.585 0 61.574-10t42.782-28.988q16.793-18.992 24.789-46.78t8-63.773q0-68.771-35.585-102.356t-101.56-33.58zm446.61 83.564h35.985q-.8-23.59-9-40.583a79.074 79.074 0 0 0 -22.39-28.188 92.357 92.357 0 0 0 -32.986-16.393 152.541 152.541 0 0 0 -40.783-5.2 146.442 146.442 0 0 0 -38.184 5 104.987 104.987 0 0 0 -33.186 15.194 76.9 76.9 0 0 0 -23.39 25.989q-8.788 15.794-8.788 37.384 0 19.592 7.8 32.586a63.208 63.208 0 0 0 20.791 21.191 120.832 120.832 0 0 0 29.387 13.194q16.393 5 33.386 8.8t33.386 7.4a152.211 152.211 0 0 1 29.388 9.4q12.994 5.8 20.791 14.994t7.8 23.99q0 15.593-6.4 25.589a46.557 46.557 0 0 1 -16.793 15.793 75.978 75.978 0 0 1 -23.39 8.2 141.8 141.8 0 0 1 -25.789 2.4 122.029 122.029 0 0 1 -31.187-4 77.6 77.6 0 0 1 -26.589-12.395 63.621 63.621 0 0 1 -18.392-21.391q-7-12.994-7-30.987h-35.989q0 25.989 9.4 44.981a86.245 86.245 0 0 0 25.589 31.187 112.072 112.072 0 0 0 37.579 18.178 167.386 167.386 0 0 0 45.381 6 173.555 173.555 0 0 0 39.383-4.6 113.97 113.97 0 0 0 35.785-14.794 83.911 83.911 0 0 0 26.189-26.389q10.2-16.193 10.2-38.983 0-21.191-7.8-35.185a69.459 69.459 0 0 0 -20.791-23.19 110.123 110.123 0 0 0 -29.388-14.594q-16.393-5.4-33.386-9.4t-33.386-7.4a174.823 174.823 0 0 1 -29.387-8.6q-12.995-5.2-20.791-13.394t-7.8-21.391q0-13.994 5.4-23.39a41.98 41.98 0 0 1 14.394-14.982 62.637 62.637 0 0 1 20.591-8 116.126 116.126 0 0 1 23.59-2.4q29.587 0 48.579 13.794t22.191 44.585zm294.675 2.4h37.983q-3.2-22.79-13.594-40.183a98.867 98.867 0 0 0 -25.986-28.988 113.92 113.92 0 0 0 -35.585-17.593 146.743 146.743 0 0 0 -42.382-6q-32.786 0-58.175 11.795a120.227 120.227 0 0 0 -42.385 32.189 141.151 141.151 0 0 0 -25.789 47.78 190.461 190.461 0 0 0 -8.8 58.575 201.3 201.3 0 0 0 8.2 58.375q8.2 27.188 24.59 47.18a113.868 113.868 0 0 0 41.182 31.383q24.789 11.4 57.975 11.4 54.777 0 86.363-29.987t37.184-83.964h-37.978a108.929 108.929 0 0 1 -7.2 32.786 79.129 79.129 0 0 1 -16.593 26.189 75.573 75.573 0 0 1 -25.189 17.193q-14.594 6.2-33.386 6.2-25.589 0-43.981-9.6a85.894 85.894 0 0 1 -30.187-25.789q-11.8-16.193-17.393-37.984a184.987 184.987 0 0 1 -5.6-46.18 165.375 165.375 0 0 1 5.6-43.182 111.3 111.3 0 0 1 17.391-36.982 86.407 86.407 0 0 1 29.987-25.792q18.192-9.6 43.781-9.6 29.987 0 51.778 15.194t28.192 45.584zm165.929-85.964h51.974l71.57 225.9h.8l73.169-225.9h50.778l-97.555 285.477h-55.576zm276.682 0h49.979v285.477h-49.979zm83.964 0h231.1v43.177h-90.761v242.3h-49.979v-242.3h-90.361z" fill="#707070" transform="translate(863.089 249.909)"/></g></svg>